<svg id="logo" xmlns="http://www.w3.org/2000/svg" viewBox="0 0 596.3 99.7"><defs><style>.cls-1{fill:#0baa4b;}.cls-2{fill:#fff;}</style></defs><title>koritek-logo-light</title><g id="logo__icon"><path id="logo__icon-bg" class="cls-1" d="M90.5,0H0V82.6A16.9,16.9,0,0,0,16.9,99.5h90.5V16.9A16.9,16.9,0,0,0,90.5,0Z"/><polygon id="logo__icon-top" class="cls-2" points="17.1 33.5 34.1 16.3 57.5 16.3 28.7 45.1 17.1 33.5"/><polygon id="logo__icon-arrow" class="cls-2" points="57.1 50 90.2 83.2 66.8 83.2 33.7 50 66.8 16.3 90.2 16.3 56.8 49.7 57.1 50"/></g><g id="logo__text"><path id="k-1" class="cls-2" d="M151.5.6V56.8l23.1-27.5h20.3v.9L167,61.5l31.8,35.1v1.3H178.4L151.5,66.8V97.9H134.6V.6Z"/><path id="o" class="cls-2" d="M275.4,63.6c0,19.8-13.5,35.8-35.8,35.8S204,83.4,204,63.6s13.6-35.7,35.5-35.7S275.4,44,275.4,63.6Zm-54.4,0c0,10.5,6.2,20.2,18.6,20.2s18.7-9.7,18.7-20.2S251,43.3,239.6,43.3,221,53.3,221,63.6Z"/><path id="r" class="cls-2" d="M306.3,29.3l1.2,7.9c5.3-8.5,12.4-9.8,19.4-9.8s13.9,2.8,17.7,6.6l-7.7,14.7a17.1,17.1,0,0,0-12.2-4.4c-9,0-17.2,4.7-17.2,17.4V97.9H290.6V29.3Z"/><path id="i" class="cls-2" d="M372.9,9.9c0,13.2-20,13.2-20,0S372.9-3.3,372.9,9.9ZM354.4,29V97.9h17V29Z"/><path id="t" class="cls-2" d="M414.1,9.9V29.4h19V44H414V73.6c0,6.6,3.6,9.8,8.9,9.8a20.3,20.3,0,0,0,8.2-2.1l4.7,14.5a37.7,37.7,0,0,1-14,2.9c-14.9.5-24.6-7.9-24.6-25.1V44H384.4V29.4h12.8V11.7Z"/><path id="e" class="cls-2" d="M463.7,69.6c1.1,8.5,8.5,14.6,20.4,14.6,6.3,0,14.5-2.3,18.4-6.4l10.8,10.7c-7.2,7.5-19,11.2-29.4,11.2-23.7,0-37.8-14.6-37.8-36.6s14.2-35.9,36.5-35.9,37.3,14.2,34.6,42.4Zm37.3-14c-1.1-9-8.1-13.4-17.8-13.4S466.5,46.6,464,55.6Z"/><path id="k-2" class="cls-2" d="M549,.6V56.8l23.1-27.5h20.3v.9l-28,31.3,31.9,35.1v1.3H575.8L549,66.8V97.9H532V.6Z"/></g></svg>